<svg width="55" height="60" viewBox="0 0 55 60" fill="none" xmlns="http://www.w3.org/2000/svg">
<path d="M17.8266 40.8151C17.6153 40.8151 17.4082 40.7051 17.2842 40.5025L14.3956 35.7831C14.3838 35.7636 14.3728 35.7437 14.363 35.7233C13.7251 34.4092 12.4046 33.3132 11.1096 33.7592L10.7629 33.8793L11.6482 35.6142C11.8188 35.948 11.7026 36.3659 11.3887 36.5474C11.0755 36.7288 10.682 36.6052 10.5119 36.2711L9.26046 33.8193C9.17373 33.6495 9.15815 33.4487 9.21751 33.2659C9.27688 33.0833 9.40571 32.9354 9.57243 32.8588C9.64295 32.8258 9.68589 32.8064 9.7322 32.7891L10.7098 32.4501C12.6791 31.7694 14.6017 33.2444 15.4965 35.0599L18.3679 39.7511C18.5628 40.0697 18.4782 40.496 18.179 40.7035C18.07 40.779 17.9477 40.8151 17.8266 40.8151Z" fill="#5E6275"/>
<path d="M36.5616 50.206H29.8517C29.7748 50.206 29.6986 50.1915 29.6266 50.163L14.0398 44.004C13.9897 43.9843 13.9421 43.9579 13.8983 43.9258L3.91417 36.6143C3.76681 36.5066 3.66808 36.3388 3.64135 36.1508C3.61441 35.9626 3.66198 35.7712 3.77229 35.6218C3.81165 35.5685 3.8487 35.5212 3.89101 35.4732L4.62084 34.6947C6.08556 33.1371 8.42809 33.5238 9.9991 34.7117L18.0984 39.6895H19.2562C18.62 38.8558 18.2546 37.7637 18.2813 36.7454C18.2817 36.7297 18.2826 36.714 18.2841 36.6986C18.2841 36.6986 18.3201 36.3034 18.3245 36.2606C18.3615 35.9126 18.6381 35.6496 18.9672 35.6496H30.0424C30.1996 35.6496 30.3514 35.7105 30.4695 35.821L34.5679 39.6565H36.5616C36.9188 39.6565 37.2083 39.9646 37.2083 40.3448C37.2083 40.725 36.9188 41.0331 36.5616 41.0331H34.3239C34.1667 41.0331 34.0149 40.9722 33.8968 40.8617L29.7984 37.0261H19.5791C19.6555 38.2018 20.4839 39.5237 21.564 39.6895H27.9354C28.2926 39.6895 28.5821 39.9975 28.5821 40.3777C28.5821 40.758 28.2926 41.066 27.9354 41.066L21.7275 41.0824C21.6505 41.0799 21.5747 41.0745 21.4996 41.066H17.9241C17.8098 41.066 17.6976 41.0338 17.5989 40.9726L15.2641 39.5272L9.32611 35.8877C9.30717 35.8761 9.28864 35.8635 9.27075 35.8499C8.17042 35.0061 6.4872 34.6561 5.5355 35.6679L5.27826 35.9424L14.5652 42.7433L29.9679 48.8294H36.5616C36.9188 48.8294 37.2083 49.1375 37.2083 49.5177C37.2083 49.8979 36.9188 50.206 36.5616 50.206Z" fill="#5E6275"/>
<path d="M40.7265 52.1203H36.566C36.2088 52.1203 35.9193 51.8123 35.9193 51.432V37.4584C35.9193 37.0782 36.2088 36.7701 36.566 36.7701H49.2914C49.6486 36.7701 49.9381 37.0782 49.9381 37.4584C49.9381 37.8386 49.6486 38.1467 49.2914 38.1467H37.2127V50.7438H40.7265C41.0837 50.7438 41.3731 51.0518 41.3731 51.432C41.3731 51.8123 41.0837 52.1203 40.7265 52.1203Z" fill="#5E6275"/>
<path d="M45.0604 51.8358C45.0175 51.8358 44.9743 51.8313 44.9354 51.8221C44.8925 51.8129 44.8535 51.799 44.8148 51.7807C44.7716 51.7623 44.7371 51.7442 44.7028 51.7166C44.6638 51.6935 44.6337 51.666 44.6034 51.6339C44.4828 51.5055 44.4138 51.3265 44.4138 51.1475C44.4138 50.964 44.4828 50.785 44.6034 50.6611C44.7544 50.5004 44.9743 50.4272 45.1855 50.4731C45.2286 50.4823 45.2674 50.4913 45.3063 50.5096C45.345 50.528 45.3838 50.5511 45.4183 50.5739C45.4528 50.597 45.4873 50.629 45.5174 50.6611C45.6383 50.785 45.7071 50.964 45.7071 51.1475C45.7071 51.3265 45.6383 51.5055 45.5174 51.6339C45.4873 51.666 45.4528 51.6935 45.4183 51.7166C45.3838 51.7442 45.345 51.7623 45.3063 51.7807C45.2674 51.799 45.2286 51.8129 45.1855 51.8221C45.1467 51.8313 45.1036 51.8358 45.0604 51.8358Z" fill="#5E6275"/>
<path d="M50.7193 56.0357H41.2256C40.8684 56.0357 40.5789 55.7276 40.5789 55.3474V34.3564C40.5789 33.9762 40.8684 33.6681 41.2256 33.6681C41.5828 33.6681 41.8723 33.9762 41.8723 34.3564V54.6591H50.7193C51.0765 54.6591 51.366 54.9672 51.366 55.3474C51.366 55.7276 51.0765 56.0357 50.7193 56.0357Z" fill="#5E6275"/>
<path d="M23.1624 15.6342C18.5668 15.6342 14.8281 19.6124 14.8281 24.5024C14.8281 29.3935 18.5668 33.373 23.1624 33.373C27.7569 33.373 31.4947 29.3935 31.4947 24.5024C31.4947 19.6124 27.7569 15.6342 23.1624 15.6342ZM23.1624 31.9964C19.28 31.9964 16.1215 28.6345 16.1215 24.5024C16.1215 20.3715 19.28 17.0108 23.1624 17.0108C27.0437 17.0108 30.2013 20.3715 30.2013 24.5024C30.2013 28.6345 27.0437 31.9964 23.1624 31.9964Z" fill="#5E6275"/>
<path d="M23.904 19.1331V18.3518C23.904 17.9717 23.6146 17.6635 23.2573 17.6635C22.9001 17.6635 22.6107 17.9717 22.6107 18.3518V19.1212H22.5302C21.3076 19.1212 20.3129 20.1809 20.3129 21.4836V22.6212C20.3129 23.3401 20.7131 23.9748 21.5025 24.5081C21.5389 24.5328 21.5777 24.5534 21.6179 24.5697L22.3842 24.8819L24.1524 25.6078C24.5025 25.8548 24.7176 26.125 24.7176 26.3213V27.4623C24.7176 28.005 24.3031 28.4463 23.7935 28.4463H22.5302C22.0208 28.4463 21.6063 28.005 21.6063 27.4623V26.9288C21.6063 26.5486 21.3169 26.2404 20.9596 26.2404C20.6024 26.2404 20.3129 26.5486 20.3129 26.9288V27.4623C20.3129 28.764 21.3076 29.8229 22.5302 29.8229H22.6107V30.4606C22.6107 30.8407 22.9001 31.1489 23.2573 31.1489C23.6146 31.1489 23.904 30.8407 23.904 30.4606V29.811C25.0744 29.7482 26.011 28.7237 26.011 27.4623V26.3213C26.011 25.6076 25.59 24.9467 24.7936 24.4098C24.7578 24.3855 24.7197 24.3653 24.6802 24.349L24.4971 24.2739C24.4892 24.2703 24.4841 24.2629 24.476 24.2595L22.7716 23.5657L22.3955 23.4111C22.3937 23.4105 22.3919 23.4109 22.39 23.4103L22.1437 23.3099C21.9221 23.1536 21.6063 22.8839 21.6063 22.6212V21.4836C21.6063 20.94 22.0208 20.4979 22.5302 20.4979H23.7935C24.3031 20.4979 24.7176 20.94 24.7176 21.4836V22.0138C24.7176 22.3939 25.0071 22.7021 25.3643 22.7021C25.7215 22.7021 26.011 22.3939 26.011 22.0138V21.4836C26.011 20.2213 25.0744 19.1959 23.904 19.1331Z" fill="#5E6275"/>
<path d="M16.1724 17.0107C15.8152 17.0107 15.5258 16.7026 15.5258 16.3224V10.7509C15.5258 10.3707 15.8152 10.0626 16.1724 10.0626C16.5297 10.0626 16.8191 10.3707 16.8191 10.7509V16.3224C16.8191 16.7026 16.5297 17.0107 16.1724 17.0107Z" fill="#5E6275"/>
<path d="M19.9907 14.2253C19.6334 14.2253 19.344 13.9172 19.344 13.537V5.52465C19.344 5.14444 19.6334 4.83636 19.9907 4.83636C20.3479 4.83636 20.6374 5.14444 20.6374 5.52465V13.537C20.6374 13.9172 20.3479 14.2253 19.9907 14.2253Z" fill="#5E6275"/>
<path d="M23.859 14.2252C23.5017 14.2252 23.2123 13.9172 23.2123 13.537V10.0084C23.2123 9.62814 23.5017 9.32007 23.859 9.32007C24.2162 9.32007 24.5056 9.62814 24.5056 10.0084V13.537C24.5056 13.9172 24.2162 14.2252 23.859 14.2252Z" fill="#5E6275"/>
<path d="M29.1136 15.5257C28.7564 15.5257 28.4669 15.2176 28.4669 14.8374V4.65264C28.4669 4.27243 28.7564 3.96436 29.1136 3.96436C29.4708 3.96436 29.7603 4.27243 29.7603 4.65264V14.8374C29.7603 15.2176 29.4708 15.5257 29.1136 15.5257Z" fill="#5E6275"/>
</svg>
