<svg width="55" height="60" viewBox="0 0 55 60" fill="#5E6275" xmlns="http://www.w3.org/2000/svg">
<path d="M38.0244 55.3141H21.7864C21.4323 55.3141 21.1453 54.9571 21.1453 54.5164V5.48358C21.1453 5.04294 21.4323 4.68591 21.7864 4.68591H38.0244C38.3786 4.68591 38.6655 5.04294 38.6655 5.48358V54.5164C38.6655 54.9571 38.3786 55.3141 38.0244 55.3141ZM22.4274 53.7188H37.3834V6.28125H22.4274V53.7188Z" fill="#5E6275"/>
<path d="M35.8023 15.525H24.0086C23.6544 15.525 23.3675 15.168 23.3675 14.7274V10.953C23.3675 10.5124 23.6544 10.1553 24.0086 10.1553H35.8023C36.1564 10.1553 36.4433 10.5124 36.4433 10.953V14.7274C36.4433 15.168 36.1564 15.525 35.8023 15.525ZM24.6496 13.9297H35.1612V11.7507H24.6496V13.9297Z" fill="#5E6275"/>
<path d="M35.8023 24.1384H24.0086C23.6544 24.1384 23.3675 23.7814 23.3675 23.3407V19.5661C23.3675 19.1255 23.6544 18.7684 24.0086 18.7684H35.8023C36.1564 18.7684 36.4433 19.1255 36.4433 19.5661V23.3407C36.4433 23.7814 36.1564 24.1384 35.8023 24.1384ZM24.6496 22.5431H35.1612V20.3638H24.6496V22.5431Z" fill="#5E6275"/>
<path d="M35.8023 32.7517H24.0086C23.6544 32.7517 23.3675 32.3947 23.3675 31.9541V28.1794C23.3675 27.7388 23.6544 27.3818 24.0086 27.3818H35.8023C36.1564 27.3818 36.4433 27.7388 36.4433 28.1794V31.9541C36.4433 32.3947 36.1564 32.7517 35.8023 32.7517ZM24.6496 31.1564H35.1612V28.9771H24.6496V31.1564Z" fill="#5E6275"/>
<path d="M35.8023 41.3651H24.0086C23.6544 41.3651 23.3675 41.0081 23.3675 40.5674V36.7928C23.3675 36.3521 23.6544 35.9951 24.0086 35.9951H35.8023C36.1564 35.9951 36.4433 36.3521 36.4433 36.7928V40.5674C36.4433 41.0081 36.1564 41.3651 35.8023 41.3651ZM24.6496 39.7698H35.1612V37.5905H24.6496V39.7698Z" fill="#5E6275"/>
<path d="M35.8023 49.9784H24.0086C23.6544 49.9784 23.3675 49.6214 23.3675 49.1808V45.4061C23.3675 44.9655 23.6544 44.6085 24.0086 44.6085H35.8023C36.1564 44.6085 36.4433 44.9655 36.4433 45.4061V49.1808C36.4433 49.6214 36.1564 49.9784 35.8023 49.9784ZM24.6496 48.3831H35.1612V46.2038H24.6496V48.3831Z" fill="#5E6275"/>
<path d="M48.2226 55.3141H38.0244C37.6703 55.3141 37.3834 54.9571 37.3834 54.5164V16.7727C37.3834 16.5037 37.4925 16.2526 37.6734 16.1051C37.8546 15.9579 38.0827 15.934 38.2811 16.0418L48.4793 21.5865C48.7128 21.7135 48.8637 22.0004 48.8637 22.3174V54.5164C48.8637 54.9571 48.5767 55.3141 48.2226 55.3141ZM38.6655 53.7188H47.5816V22.8393L38.6655 17.9918V53.7188Z" fill="#5E6275"/>
<path d="M46.0463 21.8067C45.6922 21.8067 45.4053 21.4496 45.4053 21.009V15.6923H40.9857V17.9879C40.9857 18.4285 40.6988 18.7855 40.3447 18.7855C39.9906 18.7855 39.7036 18.4285 39.7036 17.9879V14.8946C39.7036 14.454 39.9906 14.0969 40.3447 14.0969H46.0463C46.4004 14.0969 46.6874 14.454 46.6874 14.8946V21.009C46.6874 21.4496 46.4004 21.8067 46.0463 21.8067Z" fill="#5E6275"/>
<path d="M43.1956 15.6922C42.8415 15.6922 42.5546 15.3352 42.5546 14.8946V12.0402C42.5546 11.5995 42.8415 11.2425 43.1956 11.2425C43.5497 11.2425 43.8367 11.5995 43.8367 12.0402V14.8946C43.8367 15.3352 43.5497 15.6922 43.1956 15.6922Z" fill="#5E6275"/>
<path d="M17.1225 55.3141H6.9241C6.56998 55.3141 6.28305 54.957 6.28305 54.5164V23.6299C6.28305 23.1893 6.56998 22.8323 6.9241 22.8323H17.1225C17.4766 22.8323 17.7635 23.1893 17.7635 23.6299V54.5164C17.7635 54.957 17.4766 55.3141 17.1225 55.3141ZM7.56515 53.7187H16.4814V24.4276H7.56515V53.7187Z" fill="#5E6275"/>
<path d="M44.6532 29.0459H41.5938C41.2397 29.0459 40.9528 28.6889 40.9528 28.2483V24.7904C40.9528 24.3498 41.2397 23.9927 41.5938 23.9927H44.6532C45.0073 23.9927 45.2943 24.3498 45.2943 24.7904V28.2483C45.2943 28.6889 45.0073 29.0459 44.6532 29.0459ZM42.2349 27.4506H44.0122V25.5881H42.2349V27.4506Z" fill="#5E6275"/>
<path d="M44.6532 36.2639H41.5938C41.2397 36.2639 40.9528 35.9069 40.9528 35.4662V32.0084C40.9528 31.5677 41.2397 31.2107 41.5938 31.2107H44.6532C45.0073 31.2107 45.2943 31.5677 45.2943 32.0084V35.4662C45.2943 35.9069 45.0073 36.2639 44.6532 36.2639ZM42.2349 34.6685H44.0122V32.806H42.2349V34.6685Z" fill="#5E6275"/>
<path d="M44.6532 43.7461H41.5938C41.2397 43.7461 40.9528 43.3891 40.9528 42.9485V39.4906C40.9528 39.05 41.2397 38.6929 41.5938 38.6929H44.6532C45.0073 38.6929 45.2943 39.05 45.2943 39.4906V42.9485C45.2943 43.3891 45.0073 43.7461 44.6532 43.7461ZM42.2349 42.1508H44.0122V40.2883H42.2349V42.1508Z" fill="#5E6275"/>
<path d="M44.6532 50.9641H41.5938C41.2397 50.9641 40.9528 50.607 40.9528 50.1664V46.7086C40.9528 46.2679 41.2397 45.9109 41.5938 45.9109H44.6532C45.0073 45.9109 45.2943 46.2679 45.2943 46.7086V50.1664C45.2943 50.607 45.0073 50.9641 44.6532 50.9641ZM42.2349 49.3687H44.0122V47.5062H42.2349V49.3687Z" fill="#5E6275"/>
<path d="M12.9404 38.1419H6.9241C6.56998 38.1419 6.28305 37.7849 6.28305 37.3443V33.5881C6.28305 33.1474 6.56998 32.7904 6.9241 32.7904H12.9404C13.2945 32.7904 13.5815 33.1474 13.5815 33.5881V37.3443C13.5815 37.7849 13.2945 38.1419 12.9404 38.1419ZM7.56515 36.5466H12.2994V34.3857H7.56515V36.5466Z" fill="#5E6275"/>
<path d="M12.9404 44.9992H6.9241C6.56998 44.9992 6.28305 44.6422 6.28305 44.2016V40.4454C6.28305 40.0047 6.56998 39.6477 6.9241 39.6477H12.9404C13.2945 39.6477 13.5815 40.0047 13.5815 40.4454V44.2016C13.5815 44.6422 13.2945 44.9992 12.9404 44.9992ZM7.56515 43.4039H12.2994V41.243H7.56515V43.4039Z" fill="#5E6275"/>
<path d="M12.9404 51.8565H6.9241C6.56998 51.8565 6.28305 51.4995 6.28305 51.0588V47.3024C6.28305 46.8617 6.56998 46.5047 6.9241 46.5047H12.9404C13.2945 46.5047 13.5815 46.8617 13.5815 47.3024V51.0588C13.5815 51.4995 13.2945 51.8565 12.9404 51.8565ZM7.56515 50.2612H12.2994V48.1H7.56515V50.2612Z" fill="#5E6275"/>
<path d="M12.0233 21.4423C11.6692 21.4423 11.3822 21.0853 11.3822 20.6447V16.2736C11.3822 15.833 11.6692 15.476 12.0233 15.476C12.3774 15.476 12.6643 15.833 12.6643 16.2736V20.6447C12.6643 21.0853 12.3774 21.4423 12.0233 21.4423Z" fill="#5E6275"/>
<path d="M14.7054 24.4277H9.3414C8.98728 24.4277 8.70035 24.0706 8.70035 23.63V20.6447C8.70035 20.2041 8.98728 19.847 9.3414 19.847H14.7054C15.0595 19.847 15.3464 20.2041 15.3464 20.6447V23.63C15.3464 24.0706 15.0595 24.4277 14.7054 24.4277ZM9.98245 22.8323H14.0643V21.4424H9.98245V22.8323Z" fill="#5E6275"/>
<path d="M12.9404 31.2846H6.9241C6.56998 31.2846 6.28305 30.9276 6.28305 30.487V26.7308C6.28305 26.2901 6.56998 25.9331 6.9241 25.9331H12.9404C13.2945 25.9331 13.5815 26.2901 13.5815 26.7308V30.487C13.5815 30.9276 13.2945 31.2846 12.9404 31.2846ZM7.56515 29.6893H12.2994V27.5284H7.56515V29.6893Z" fill="#5E6275"/>
<path d="M50.0635 55.3141H4.93648C4.58235 55.3141 4.29543 54.9571 4.29543 54.5164C4.29543 54.0758 4.58235 53.7188 4.93648 53.7188H50.0635C50.4177 53.7188 50.7046 54.0758 50.7046 54.5164C50.7046 54.9571 50.4177 55.3141 50.0635 55.3141Z" fill="#5E6275"/>
</svg>
