<svg width="60" height="60" viewBox="0 0 60 60" fill="none" xmlns="http://www.w3.org/2000/svg">
<path d="M48.3653 10.4311C44.196 7.97189 38.692 6.61768 32.8677 6.61768H28.0698C22.2456 6.61768 16.7415 7.97189 12.5722 10.4311C8.09227 13.0734 5.625 16.6937 5.625 20.625V22.5H55.3125V20.625C55.3125 16.6937 52.8452 13.0734 48.3653 10.4311ZM9.70313 18.75C11.3617 14.0483 19.0998 10.3677 28.07 10.3677H32.8679C41.8382 10.3677 49.5763 14.0483 51.2348 18.75H9.70313Z" fill="#5E6275" stroke="#5E6275" stroke-width="0.125"/>
<path d="M55.3125 35.625H5.625V39.375H55.3125V35.625Z" fill="#5E6275" stroke="#5E6275" stroke-width="0.125"/>
<path d="M45.375 26.2545C42.4705 26.2545 40.9488 26.9723 39.6062 27.6056C38.4304 28.1602 37.5015 28.5983 35.4372 28.5983C33.3728 28.5983 32.4442 28.1602 31.2683 27.6056C29.9258 26.9728 28.4042 26.2545 25.4998 26.2545C22.5954 26.2545 21.0737 26.9723 19.7312 27.6056C18.5555 28.1602 17.6269 28.5983 15.5626 28.5983C13.4984 28.5983 12.5697 28.1602 11.3939 27.6056C10.0514 26.9728 8.52974 26.2545 5.62537 26.2545V30.0045C7.68962 30.0045 8.61833 30.4426 9.79408 30.9972C11.1366 31.63 12.6583 32.3483 15.5626 32.3483C18.467 32.3483 19.9886 31.6305 21.3311 30.9972C22.5068 30.4426 23.4355 30.0045 25.4998 30.0045C27.564 30.0045 28.4927 30.4426 29.6685 30.9972C31.0111 31.63 32.5327 32.3483 35.4372 32.3483C38.3417 32.3483 39.8633 31.6305 41.206 30.9972C42.3818 30.4426 43.3105 30.0045 45.375 30.0045C47.4395 30.0045 48.3682 30.4426 49.5441 30.9972C50.8867 31.63 52.4084 32.3483 55.3129 32.3483V28.5983C53.2484 28.5983 52.3197 28.1602 51.1438 27.6056C49.8008 26.9723 48.2792 26.2545 45.375 26.2545Z" fill="#5E6275" stroke="#5E6275" stroke-width="0.125"/>
<path d="M5.625 52.5C5.62587 53.2457 5.92246 53.9605 6.44972 54.4878C6.97698 55.015 7.69185 55.3116 8.4375 55.3125H52.5C53.2457 55.3116 53.9605 55.015 54.4878 54.4878C55.015 53.9605 55.3116 53.2457 55.3125 52.5V43.125H5.625V52.5ZM9.375 46.875H51.5625V51.5625H9.375V46.875Z" fill="#5E6275" stroke="#5E6275" stroke-width="0.125"/>
</svg>
