<svg width="55" height="60" viewBox="0 0 55 60" fill="none" xmlns="http://www.w3.org/2000/svg">
<g clip-path="url(#clip0_213_877)">
<path d="M30.7265 5.65856H27.3159C26.9015 5.65856 26.5658 5.27364 26.5658 4.79856V0.911759C26.5658 0.436687 26.9015 0.0517578 27.3159 0.0517578H30.7265C31.1409 0.0517578 31.4767 0.436687 31.4767 0.911759V4.79856C31.4767 5.27364 31.1409 5.65856 30.7265 5.65856ZM28.0661 3.93856H29.9763V1.77176H28.0661V3.93856Z" fill="#5E6275"/>
<path d="M23.3503 14.3022C22.9359 14.3022 22.6002 13.9173 22.6002 13.4422V6.51296C22.6002 6.03788 22.9359 5.65295 23.3503 5.65295H26.3413C26.7558 5.65295 27.0915 6.03788 27.0915 6.51296C27.0915 6.98803 26.7558 7.37296 26.3413 7.37296H24.1005V13.4422C24.1005 13.9173 23.7648 14.3022 23.3503 14.3022Z" fill="#5E6275"/>
<path d="M32.451 4.79864C32.451 4.32355 32.1152 3.9386 31.7008 3.9386H26.3413C25.9269 3.9386 25.5911 4.32355 25.5911 4.79864V37.619C25.5911 37.7569 25.5911 38.006 25.5911 38.006C25.5911 38.006 25.566 38.6207 25.7235 38.8829C25.7491 38.9252 28.271 43.1594 28.271 46.4272C28.271 46.9023 28.6068 47.2872 29.0212 47.2872C29.4356 47.2872 29.7714 46.9023 29.7714 46.4272C29.7714 43.1678 32.2933 38.9249 32.3189 38.8826C32.4759 38.6206 32.451 37.9985 32.451 37.9985C32.451 37.9985 32.451 37.7571 32.451 37.619V4.79864ZM30.9507 5.65861V37.5349H27.0915V5.65861H30.9507ZM29.0212 42.4318C28.6085 41.1953 28.0984 40.0733 27.6884 39.2549H30.3538C29.9441 40.0733 29.4339 41.1955 29.0212 42.4318Z" fill="#5E6275"/>
<path d="M25.7992 26.319H20.7699C20.3554 26.319 20.0197 25.9341 20.0197 25.459C20.0197 24.9839 20.3554 24.599 20.7699 24.599H25.7992C26.2136 24.599 26.5494 24.9839 26.5494 25.459C26.5494 25.9341 26.2136 26.319 25.7992 26.319Z" fill="#5E6275"/>
<path d="M53.9584 24.599H31.7008C31.2865 24.599 30.9507 24.9839 30.9507 25.459C30.9507 25.9341 31.2865 26.319 31.7008 26.319H53.2083V52.7711H19.9013C20.8976 51.6641 21.5201 50.1173 21.5201 48.4049V20.2436C21.5201 16.8819 19.1344 14.1471 16.2021 14.1471H0.791426C0.377007 14.1471 0.0412598 14.5321 0.0412598 15.0071V43.1792C0.0412598 43.6543 0.377007 44.0392 0.791426 44.0392H9.94681V53.631V58.2533C9.94681 58.7283 10.2826 59.1133 10.697 59.1133H53.9584C54.3728 59.1133 54.7086 58.7283 54.7086 58.2533V53.631V25.459C54.7086 24.9839 54.3728 24.599 53.9584 24.599ZM1.54159 15.8671H16.2021C18.3071 15.8671 20.0197 17.8304 20.0197 20.2436V44.1693C19.0541 43.0288 17.7037 42.3191 16.2111 42.3191H1.54159V15.8671ZM16.2111 44.0392C18.3112 44.0392 20.0197 45.9977 20.0197 48.4049C20.0197 50.8125 18.3112 52.7711 16.2111 52.7711H11.4472V44.0392H16.2111ZM11.4472 57.3933V54.4911H16.2111H53.2083V57.3933H11.4472Z" fill="#5E6275"/>
<path d="M38.0057 47.2871H31.7394C31.325 47.2871 30.9892 46.9022 30.9892 46.4271C30.9892 45.9521 31.325 45.5671 31.7394 45.5671H38.0057C38.4201 45.5671 38.7559 45.9521 38.7559 46.4271C38.7559 46.9022 38.4201 47.2871 38.0057 47.2871Z" fill="#5E6275"/>
<path d="M38.0057 41.6524H34.4059C33.9915 41.6524 33.6557 41.2674 33.6557 40.7924C33.6557 40.3173 33.9915 39.9324 34.4059 39.9324H38.0057C38.4201 39.9324 38.7559 40.3173 38.7559 40.7924C38.7559 41.2674 38.4201 41.6524 38.0057 41.6524Z" fill="#5E6275"/>
<path d="M38.0057 36.0229H34.4059C33.9915 36.0229 33.6557 35.6379 33.6557 35.1629C33.6557 34.6878 33.9915 34.3029 34.4059 34.3029H38.0057C38.4201 34.3029 38.7559 34.6878 38.7559 35.1629C38.7559 35.6379 38.4201 36.0229 38.0057 36.0229Z" fill="#5E6275"/>
<path d="M46.6975 45.7302H44.4868C42.888 45.7302 41.5871 44.2389 41.5871 42.4061C41.5871 41.931 41.9229 41.5461 42.3373 41.5461C42.7517 41.5461 43.0875 41.931 43.0875 42.4061C43.0875 43.2907 43.7151 44.0102 44.4868 44.0102H46.6975C47.4692 44.0102 48.0968 43.2907 48.0968 42.4061C48.0968 41.5214 47.4692 40.8017 46.6975 40.8017H44.4868C42.888 40.8017 41.5871 39.3104 41.5871 37.4776C41.5871 35.6445 42.888 34.1532 44.4868 34.1532H46.6975C48.2963 34.1532 49.5972 35.6445 49.5972 37.4776C49.5972 37.9527 49.2614 38.3376 48.847 38.3376C48.4326 38.3376 48.0968 37.9527 48.0968 37.4776C48.0968 36.593 47.4692 35.8732 46.6975 35.8732H44.4868C43.7151 35.8732 43.0875 36.593 43.0875 37.4776C43.0875 38.3622 43.7151 39.0817 44.4868 39.0817H46.6975C48.2963 39.0817 49.5972 40.573 49.5972 42.4061C49.5972 44.2389 48.2963 45.7302 46.6975 45.7302Z" fill="#5E6275"/>
<path d="M45.5923 47.2872C45.1779 47.2872 44.8421 46.9023 44.8421 46.4272V45.4435C44.8421 44.9684 45.1779 44.5835 45.5923 44.5835C46.0067 44.5835 46.3425 44.9684 46.3425 45.4435V46.4272C46.3425 46.9023 46.0067 47.2872 45.5923 47.2872Z" fill="#5E6275"/>
<path d="M45.5923 35.4126C45.1779 35.4126 44.8421 35.0277 44.8421 34.5526V33.4561C44.8421 32.981 45.1779 32.5961 45.5923 32.5961C46.0067 32.5961 46.3425 32.981 46.3425 33.4561V34.5526C46.3425 35.0277 46.0067 35.4126 45.5923 35.4126Z" fill="#5E6275"/>
</g>
<defs>
<clipPath id="clip0_213_877">
<rect width="55" height="60" fill="white"/>
</clipPath>
</defs>
</svg>
