<svg width="55" height="60" viewBox="0 0 55 60" fill="none" xmlns="http://www.w3.org/2000/svg">
<path d="M27.4999 36.4492C24.3321 36.4492 20.9653 35.1825 20.9653 32.8348C20.9653 30.4872 24.3321 29.2202 27.4999 29.2202C31.2253 29.2202 34.0346 30.7742 34.0346 32.8348C34.0346 34.8953 31.2253 36.4492 27.4999 36.4492ZM27.4999 30.7792C24.352 30.7792 22.3431 31.9967 22.3431 32.8348C22.3431 33.673 24.352 34.8902 27.4999 34.8902C30.6478 34.8902 32.6568 33.673 32.6568 32.8348C32.6568 31.9967 30.6478 30.7792 27.4999 30.7792Z" fill="#5E6275"/>
<path d="M27.4999 36.4492C24.3321 36.4492 20.9653 35.1825 20.9653 32.8348C20.9653 30.4872 24.3321 29.2202 27.4999 29.2202C31.2253 29.2202 34.0346 30.7742 34.0346 32.8348C34.0346 34.8953 31.2253 36.4492 27.4999 36.4492ZM27.4999 30.7792C24.352 30.7792 22.3431 31.9967 22.3431 32.8348C22.3431 33.673 24.352 34.8902 27.4999 34.8902C30.6478 34.8902 32.6568 33.673 32.6568 32.8348C32.6568 31.9967 30.6478 30.7792 27.4999 30.7792Z" fill="#5E6275"/>
<path d="M27.4999 36.4492C24.3321 36.4492 20.9653 35.1825 20.9653 32.8348C20.9653 30.4872 24.3321 29.2202 27.4999 29.2202C31.2253 29.2202 34.0346 30.7742 34.0346 32.8348C34.0346 34.8953 31.2253 36.4492 27.4999 36.4492ZM27.4999 30.7792C24.352 30.7792 22.3431 31.9967 22.3431 32.8348C22.3431 33.673 24.352 34.8902 27.4999 34.8902C30.6478 34.8902 32.6568 33.673 32.6568 32.8348C32.6568 31.9967 30.6478 30.7792 27.4999 30.7792Z" fill="#5E6275"/>
<path d="M27.4999 40.2293C24.3321 40.2293 20.9653 38.9626 20.9653 36.6149C20.9653 36.1843 21.2737 35.8354 21.6542 35.8354C22.0347 35.8354 22.3431 36.1843 22.3431 36.6149C22.3431 37.453 24.352 38.6703 27.4999 38.6703C30.6478 38.6703 32.6568 37.453 32.6568 36.6149C32.6568 36.1843 32.9652 35.8354 33.3457 35.8354C33.7262 35.8354 34.0346 36.1843 34.0346 36.6149C34.0346 38.6753 31.2253 40.2293 27.4999 40.2293Z" fill="#5E6275"/>
<path d="M27.4999 44.0094C24.3321 44.0094 20.9653 42.7424 20.9653 40.3947C20.9653 39.9641 21.2737 39.6152 21.6542 39.6152C22.0347 39.6152 22.3431 39.9641 22.3431 40.3947C22.3431 41.2329 24.352 42.4504 27.4999 42.4504C30.6478 42.4504 32.6568 41.2329 32.6568 40.3947C32.6568 39.9641 32.9652 39.6152 33.3457 39.6152C33.7262 39.6152 34.0346 39.9641 34.0346 40.3947C34.0346 42.4554 31.2253 44.0094 27.4999 44.0094Z" fill="#5E6275"/>
<path d="M27.4999 47.7891C24.3321 47.7891 20.9653 46.5224 20.9653 44.1748C20.9653 43.7442 21.2737 43.3953 21.6542 43.3953C22.0347 43.3953 22.3431 43.7442 22.3431 44.1748C22.3431 45.0129 24.352 46.2301 27.4999 46.2301C30.6478 46.2301 32.6568 45.0129 32.6568 44.1748C32.6568 43.7442 32.9652 43.3953 33.3457 43.3953C33.7262 43.3953 34.0346 43.7442 34.0346 44.1748C34.0346 46.2352 31.2253 47.7891 27.4999 47.7891Z" fill="#5E6275"/>
<path d="M27.4999 51.5692C24.3321 51.5692 20.9653 50.3025 20.9653 47.9549C20.9653 47.5243 21.2737 47.1754 21.6542 47.1754C22.0347 47.1754 22.3431 47.5243 22.3431 47.9549C22.3431 48.793 24.352 50.0102 27.4999 50.0102C30.6478 50.0102 32.6568 48.793 32.6568 47.9549C32.6568 47.5243 32.9652 47.1754 33.3457 47.1754C33.7262 47.1754 34.0346 47.5243 34.0346 47.9549C34.0346 50.0153 31.2253 51.5692 27.4999 51.5692Z" fill="#5E6275"/>
<path d="M27.4999 55.3493C24.3321 55.3493 20.9653 54.0824 20.9653 51.7347V32.8349C20.9653 32.4043 21.2737 32.0554 21.6542 32.0554C22.0347 32.0554 22.3431 32.4043 22.3431 32.8349V51.7347C22.3431 52.5728 24.352 53.7903 27.4999 53.7903C30.6478 53.7903 32.6568 52.5728 32.6568 51.7347V32.8349C32.6568 32.4043 32.9652 32.0554 33.3457 32.0554C33.7262 32.0554 34.0346 32.4043 34.0346 32.8349V51.7347C34.0346 53.7954 31.2253 55.3493 27.4999 55.3493Z" fill="#5E6275"/>
<path d="M44.2021 51.5692C41.0342 51.5692 37.6675 50.3025 37.6675 47.9549C37.6675 47.5243 37.9758 47.1754 38.3563 47.1754C38.7369 47.1754 39.0452 47.5243 39.0452 47.9549C39.0452 48.793 41.0542 50.0102 44.2021 50.0102C47.35 50.0102 49.359 48.793 49.359 47.9549C49.359 47.5243 49.6673 47.1754 50.0478 47.1754C50.4284 47.1754 50.7367 47.5243 50.7367 47.9549C50.7367 50.0153 47.9274 51.5692 44.2021 51.5692Z" fill="#5E6275"/>
<path d="M44.2021 55.3493C41.0342 55.3493 37.6675 54.0823 37.6675 51.7347V25.2747C37.6675 24.8441 37.9758 24.4952 38.3563 24.4952C38.7369 24.4952 39.0452 24.8441 39.0452 25.2747V51.7347C39.0452 52.5728 41.0542 53.7903 44.2021 53.7903C47.35 53.7903 49.359 52.5728 49.359 51.7347V25.2747C49.359 24.8441 49.6673 24.4952 50.0478 24.4952C50.4284 24.4952 50.7367 24.8441 50.7367 25.2747V51.7347C50.7367 53.7954 47.9274 55.3493 44.2021 55.3493Z" fill="#5E6275"/>
<path d="M44.2021 28.8893C41.0342 28.8893 37.6675 27.6224 37.6675 25.2747C37.6675 22.927 41.0342 21.6603 44.2021 21.6603C47.9274 21.6603 50.7367 23.2143 50.7367 25.2747C50.7367 27.3354 47.9274 28.8893 44.2021 28.8893ZM44.2021 23.2194C41.0542 23.2194 39.0452 24.4366 39.0452 25.2747C39.0452 26.1128 41.0542 27.3303 44.2021 27.3303C47.35 27.3303 49.359 26.1128 49.359 25.2747C49.359 24.4366 47.35 23.2194 44.2021 23.2194Z" fill="#5E6275"/>
<path d="M44.2021 28.8893C41.0342 28.8893 37.6675 27.6224 37.6675 25.2747C37.6675 22.927 41.0342 21.6603 44.2021 21.6603C47.9274 21.6603 50.7367 23.2143 50.7367 25.2747C50.7367 27.3354 47.9274 28.8893 44.2021 28.8893ZM44.2021 23.2194C41.0542 23.2194 39.0452 24.4366 39.0452 25.2747C39.0452 26.1128 41.0542 27.3303 44.2021 27.3303C47.35 27.3303 49.359 26.1128 49.359 25.2747C49.359 24.4366 47.35 23.2194 44.2021 23.2194Z" fill="#5E6275"/>
<path d="M44.2021 28.8893C41.0342 28.8893 37.6675 27.6224 37.6675 25.2747C37.6675 22.927 41.0342 21.6603 44.2021 21.6603C47.9274 21.6603 50.7367 23.2143 50.7367 25.2747C50.7367 27.3354 47.9274 28.8893 44.2021 28.8893ZM44.2021 23.2194C41.0542 23.2194 39.0452 24.4366 39.0452 25.2747C39.0452 26.1128 41.0542 27.3303 44.2021 27.3303C47.35 27.3303 49.359 26.1128 49.359 25.2747C49.359 24.4366 47.35 23.2194 44.2021 23.2194Z" fill="#5E6275"/>
<path d="M44.2021 32.6694C41.0342 32.6694 37.6675 31.4024 37.6675 29.0548C37.6675 28.6242 37.9758 28.2753 38.3563 28.2753C38.7369 28.2753 39.0452 28.6242 39.0452 29.0548C39.0452 29.8929 41.0542 31.1104 44.2021 31.1104C47.35 31.1104 49.359 29.8929 49.359 29.0548C49.359 28.6242 49.6673 28.2753 50.0478 28.2753C50.4284 28.2753 50.7367 28.6242 50.7367 29.0548C50.7367 31.1155 47.9274 32.6694 44.2021 32.6694Z" fill="#5E6275"/>
<path d="M44.2021 36.4492C41.0342 36.4492 37.6675 35.1825 37.6675 32.8349C37.6675 32.4043 37.9758 32.0554 38.3563 32.0554C38.7369 32.0554 39.0452 32.4043 39.0452 32.8349C39.0452 33.673 41.0542 34.8902 44.2021 34.8902C47.35 34.8902 49.359 33.673 49.359 32.8349C49.359 32.4043 49.6673 32.0554 50.0478 32.0554C50.4284 32.0554 50.7367 32.4043 50.7367 32.8349C50.7367 34.8953 47.9274 36.4492 44.2021 36.4492Z" fill="#5E6275"/>
<path d="M44.2021 40.2293C41.0342 40.2293 37.6675 38.9626 37.6675 36.6149C37.6675 36.1843 37.9758 35.8354 38.3563 35.8354C38.7369 35.8354 39.0452 36.1843 39.0452 36.6149C39.0452 37.453 41.0542 38.6703 44.2021 38.6703C47.35 38.6703 49.359 37.453 49.359 36.6149C49.359 36.1843 49.6673 35.8354 50.0478 35.8354C50.4284 35.8354 50.7367 36.1843 50.7367 36.6149C50.7367 38.6753 47.9274 40.2293 44.2021 40.2293Z" fill="#5E6275"/>
<path d="M44.2021 44.0094C41.0342 44.0094 37.6675 42.7424 37.6675 40.3947C37.6675 39.9641 37.9758 39.6152 38.3563 39.6152C38.7369 39.6152 39.0452 39.9641 39.0452 40.3947C39.0452 41.2329 41.0542 42.4504 44.2021 42.4504C47.35 42.4504 49.359 41.2329 49.359 40.3947C49.359 39.9641 49.6673 39.6152 50.0478 39.6152C50.4284 39.6152 50.7367 39.9641 50.7367 40.3947C50.7367 42.4554 47.9274 44.0094 44.2021 44.0094Z" fill="#5E6275"/>
<path d="M44.2021 47.7891C41.0342 47.7891 37.6675 46.5224 37.6675 44.1748C37.6675 43.7442 37.9758 43.3953 38.3563 43.3953C38.7369 43.3953 39.0452 43.7442 39.0452 44.1748C39.0452 45.0129 41.0542 46.2301 44.2021 46.2301C47.35 46.2301 49.359 45.0129 49.359 44.1748C49.359 43.7442 49.6673 43.3953 50.0478 43.3953C50.4284 43.3953 50.7367 43.7442 50.7367 44.1748C50.7367 46.2352 47.9274 47.7891 44.2021 47.7891Z" fill="#5E6275"/>
<path d="M10.7978 44.0093C7.62994 44.0093 4.26318 42.7424 4.26318 40.3947C4.26318 38.047 7.62994 36.7803 10.7978 36.7803C14.5231 36.7803 17.3324 38.3343 17.3324 40.3947C17.3324 42.4554 14.5231 44.0093 10.7978 44.0093ZM10.7978 38.3394C7.6499 38.3394 5.64092 39.5566 5.64092 40.3947C5.64092 41.2328 7.6499 42.4503 10.7978 42.4503C13.9457 42.4503 15.9547 41.2328 15.9547 40.3947C15.9547 39.5566 13.9457 38.3394 10.7978 38.3394Z" fill="#5E6275"/>
<path d="M10.7978 44.0093C7.62994 44.0093 4.26318 42.7424 4.26318 40.3947C4.26318 38.047 7.62994 36.7803 10.7978 36.7803C14.5231 36.7803 17.3324 38.3343 17.3324 40.3947C17.3324 42.4554 14.5231 44.0093 10.7978 44.0093ZM10.7978 38.3394C7.6499 38.3394 5.64092 39.5566 5.64092 40.3947C5.64092 41.2328 7.6499 42.4503 10.7978 42.4503C13.9457 42.4503 15.9547 41.2328 15.9547 40.3947C15.9547 39.5566 13.9457 38.3394 10.7978 38.3394Z" fill="#5E6275"/>
<path d="M10.7978 44.0093C7.62994 44.0093 4.26318 42.7424 4.26318 40.3947C4.26318 38.047 7.62994 36.7803 10.7978 36.7803C14.5231 36.7803 17.3324 38.3343 17.3324 40.3947C17.3324 42.4554 14.5231 44.0093 10.7978 44.0093ZM10.7978 38.3394C7.6499 38.3394 5.64092 39.5566 5.64092 40.3947C5.64092 41.2328 7.6499 42.4503 10.7978 42.4503C13.9457 42.4503 15.9547 41.2328 15.9547 40.3947C15.9547 39.5566 13.9457 38.3394 10.7978 38.3394Z" fill="#5E6275"/>
<path d="M10.7978 47.7891C7.62994 47.7891 4.26318 46.5224 4.26318 44.1748C4.26318 43.7442 4.57152 43.3953 4.95205 43.3953C5.33259 43.3953 5.64092 43.7442 5.64092 44.1748C5.64092 45.0129 7.6499 46.2301 10.7978 46.2301C13.9457 46.2301 15.9547 45.0129 15.9547 44.1748C15.9547 43.7442 16.263 43.3953 16.6435 43.3953C17.0241 43.3953 17.3324 43.7442 17.3324 44.1748C17.3324 46.2352 14.5231 47.7891 10.7978 47.7891Z" fill="#5E6275"/>
<path d="M10.7978 51.5692C7.62994 51.5692 4.26318 50.3025 4.26318 47.9549C4.26318 47.5243 4.57152 47.1754 4.95205 47.1754C5.33259 47.1754 5.64092 47.5243 5.64092 47.9549C5.64092 48.793 7.6499 50.0102 10.7978 50.0102C13.9457 50.0102 15.9547 48.793 15.9547 47.9549C15.9547 47.5243 16.263 47.1754 16.6435 47.1754C17.0241 47.1754 17.3324 47.5243 17.3324 47.9549C17.3324 50.0153 14.5231 51.5692 10.7978 51.5692Z" fill="#5E6275"/>
<path d="M10.7978 55.3493C7.62994 55.3493 4.26318 54.0824 4.26318 51.7347V40.3947C4.26318 39.9641 4.57152 39.6152 4.95205 39.6152C5.33259 39.6152 5.64092 39.9641 5.64092 40.3947V51.7347C5.64092 52.5728 7.6499 53.7903 10.7978 53.7903C13.9457 53.7903 15.9547 52.5728 15.9547 51.7347V40.3947C15.9547 39.9641 16.263 39.6152 16.6435 39.6152C17.0241 39.6152 17.3324 39.9641 17.3324 40.3947V51.7347C17.3324 53.7954 14.5231 55.3493 10.7978 55.3493Z" fill="#5E6275"/>
<path d="M4.95115 32.6694C4.61703 32.6694 4.3235 32.3938 4.27125 32.0084C4.21339 31.5829 4.47127 31.185 4.84732 31.1195L15.4382 29.2755L21.9513 20.063C22.0821 19.878 22.2801 19.7704 22.4893 19.7704H32.1052L36.0841 11.6663C36.17 11.4914 36.312 11.3605 36.4808 11.3009L49.8424 6.57584C50.205 6.44744 50.5916 6.67582 50.7053 7.08739C50.8188 7.49821 50.6165 7.93542 50.2533 8.06381L37.1547 12.696L33.1127 20.9285C32.9914 21.1759 32.7609 21.3295 32.5106 21.3295H22.8203L16.3464 30.4867C16.2386 30.6392 16.0838 30.7404 15.9132 30.7701L5.05676 32.6603C5.02133 32.6666 4.9859 32.6694 4.95115 32.6694Z" fill="#5E6275"/>
<path d="M46.7067 13.7693C46.5755 13.7693 46.4427 13.7269 46.3252 13.6384C46.0086 13.3996 45.9232 12.9157 46.1342 12.5574L48.9511 7.77605L44.0128 6.17947C43.6471 6.06122 43.4352 5.6296 43.5397 5.21574C43.6444 4.80188 44.0261 4.56361 44.3914 4.68033L50.2371 6.57024C50.4486 6.63875 50.6185 6.81714 50.6943 7.05084C50.7704 7.28454 50.743 7.54514 50.621 7.75219L47.2805 13.4222C47.1477 13.6475 46.9293 13.7693 46.7067 13.7693Z" fill="#5E6275"/>
</svg>
